<svg width="20" height="21" viewBox="0 0 20 21" fill="none" xmlns="http://www.w3.org/2000/svg">
<path d="M14.4476 9.03585C16.4037 8.49761 19.999 6.34059 19.999 3.46809C19.999 3.13237 19.9159 2.80028 19.755 2.49261C19.5941 2.18495 19.3589 1.90833 19.0641 1.68008C18.7693 1.45183 18.4213 1.27687 18.0417 1.16615C17.6622 1.05543 17.2594 1.01134 16.8585 1.03664C16.8585 0.940262 16.8683 0.845519 16.8703 0.749143C16.8708 0.678736 16.8546 0.608935 16.8228 0.543757C16.7909 0.478579 16.7439 0.419309 16.6844 0.369357C16.6252 0.3186 16.5543 0.278391 16.476 0.251157C16.3976 0.223924 16.3135 0.210232 16.2287 0.210908H3.77035C3.68566 0.210295 3.6017 0.22402 3.52353 0.251252C3.44537 0.278485 3.37462 0.318662 3.31556 0.369357C3.25614 0.419309 3.20914 0.478579 3.17725 0.543757C3.14536 0.608935 3.12921 0.678736 3.12974 0.749143C3.12974 0.843886 3.12974 0.939445 3.13756 1.03664C2.73692 1.0117 2.33443 1.05605 1.95525 1.16693C1.57608 1.27781 1.22837 1.45283 0.933887 1.68104C0.639402 1.90925 0.404469 2.18574 0.243779 2.49324C0.0830896 2.80073 9.90313e-05 3.1326 0 3.46809C0 6.33977 3.59235 8.49843 5.55235 9.03585C6.14647 9.9307 7.00636 10.6828 8.04929 11.2198C8.00485 11.3629 7.97702 11.5092 7.96616 11.6568C7.98481 11.9546 8.10306 12.2421 8.3075 12.4866V13.2788C7.96987 13.3247 7.64864 13.4326 7.36703 13.5947C7.08541 13.7569 6.85043 13.9692 6.67905 14.2165H5.53768C5.48777 14.2162 5.43831 14.2243 5.39215 14.2401C5.34599 14.256 5.30406 14.2793 5.26877 14.3088C5.23348 14.3383 5.20553 14.3733 5.18656 14.4118C5.16758 14.4504 5.15794 14.4917 5.1582 14.5334V18.9961H4.88141C4.83151 18.9958 4.78204 19.0039 4.73588 19.0197C4.68973 19.0356 4.64779 19.0589 4.6125 19.0884C4.57721 19.1179 4.54927 19.1529 4.53029 19.1914C4.51131 19.23 4.50167 19.2713 4.50193 19.313V20.164C4.50167 20.2057 4.51131 20.247 4.53029 20.2855C4.54927 20.3241 4.57721 20.3591 4.6125 20.3886C4.64779 20.418 4.68973 20.4414 4.73588 20.4572C4.78204 20.4731 4.83151 20.4811 4.88141 20.4809H15.1176C15.2182 20.4807 15.3145 20.4472 15.3857 20.3879C15.4568 20.3285 15.4968 20.248 15.4971 20.164V19.3089C15.4956 19.2256 15.4549 19.1462 15.384 19.0877C15.313 19.0292 15.2173 18.9963 15.1176 18.9961H14.8438V14.5301C14.8435 14.4461 14.8034 14.3656 14.7323 14.3063C14.6612 14.2469 14.5648 14.2134 14.4643 14.2132H13.318C13.147 13.9665 12.9125 13.7547 12.6313 13.5931C12.3502 13.4315 12.0295 13.3241 11.6925 13.2788V12.4964C11.8961 12.2491 12.0142 11.9597 12.0338 11.6601C12.0209 11.5138 11.9931 11.3687 11.9507 11.2264C12.9927 10.6855 13.8521 9.93157 14.4476 9.03585ZM0.755049 3.46809C0.755825 2.98849 0.984316 2.52872 1.39042 2.18959C1.79652 1.85046 2.3471 1.65965 2.92141 1.659C3.00446 1.65913 3.08743 1.66349 3.16984 1.67207C3.17668 1.78151 3.18255 1.89095 3.19135 1.99876C3.31852 4.11955 3.92028 6.20168 4.96552 8.13743C3.25297 7.39827 0.75994 5.67657 0.75994 3.46809H0.755049ZM16.8028 1.99795C16.8116 1.89095 16.8194 1.78233 16.8262 1.67125C16.9074 1.66279 16.989 1.65843 17.0708 1.65818C17.6451 1.65883 18.1957 1.84964 18.6018 2.18877C19.0079 2.5279 19.2363 2.98767 19.2371 3.46727C19.2371 5.67249 16.7431 7.39909 15.0266 8.13579C16.0713 6.20081 16.6746 4.12011 16.8057 2.0004L16.8028 1.99795ZM12.9444 15.7977V18.0429H7.05364V15.7977H12.9444ZM11.6456 9.59614L11.2054 9.07995C11.802 8.69021 12.2972 8.20305 12.6608 7.6482C12.7918 7.46279 12.9151 7.26923 13.0285 7.07647C13.9141 5.43368 14.4249 3.66733 14.5347 1.86809C14.5415 1.77498 14.5484 1.68105 14.5552 1.58222L15.3122 1.61489C15.3064 1.71699 15.2985 1.81336 15.2917 1.90974C15.1753 3.79062 14.6393 5.63681 13.7112 7.35335C13.5899 7.56244 13.4559 7.76989 13.32 7.97081C12.9008 8.60252 12.3309 9.1557 11.6456 9.59614Z"/>
</svg>
