<svg xmlns="http://www.w3.org/2000/svg" width="23.354" height="29.947" viewBox="0 0 23.354 29.947">
  <g id="Group_635" data-name="Group 635" transform="translate(-2752.851 1384.945)">
    <path id="_001-rating" data-name="001-rating" d="M15.62,18.827,13.675,20.71l.457,2.643-2.389-1.247L9.355,23.353l.456-2.643L7.866,18.827l2.687-.388,1.19-2.4,1.19,2.4Zm7.8.006-2.687-.388-1.19-2.4-1.19,2.4-2.687.388,1.945,1.883-.456,2.643,2.389-1.247,2.389,1.247-.456-2.643ZM5.133,18.42l-1.19-2.4-1.19,2.4-2.687.388,1.945,1.884-.456,2.645,2.389-1.248,2.389,1.248-.456-2.645L7.82,18.808Zm.161-3.484-1.755-.5a8.613,8.613,0,0,1,4.946-5.57,5.018,5.018,0,1,1,6.485-.05,8.611,8.611,0,0,1,5.054,5.569l-1.752.51a6.754,6.754,0,0,0-12.978.04ZM8.5,5.017A3.193,3.193,0,1,0,11.7,1.824,3.2,3.2,0,0,0,8.5,5.017Z" transform="translate(2752.785 -1384.944)" />
    <path id="_001-rating-2" data-name="001-rating" d="M15.62,19.995l-1.945,1.883.457,2.643-2.389-1.247L9.355,24.521l.456-2.643L7.866,19.995l2.687-.388,1.19-2.4,1.19,2.4ZM5.133,19.587l-1.19-2.4-1.19,2.4-2.687.388,1.945,1.884L1.555,24.5l2.389-1.248L6.332,24.5l-.456-2.645L7.82,19.975Z" transform="translate(2756.566 -1379.519)" fill="#fff"/>
  </g>
</svg>
