<svg width="22" height="20" viewBox="0 0 22 20" fill="none" xmlns="http://www.w3.org/2000/svg">
<path d="M18.9947 18.969C19.1362 16.548 19.1844 9.45599 19.1844 9.45599H20.5484C20.6681 9.45599 20.783 9.42438 20.8677 9.36812C20.9524 9.31186 21 9.23555 21 9.15599V7.34199C21 7.26242 20.9524 7.18612 20.8677 7.12985C20.783 7.07359 20.6681 7.04199 20.5484 7.04199H15.8528L18.0358 6.76699C18.3922 6.72191 18.7272 6.62086 19.0128 6.47228C19.2984 6.32369 19.5264 6.13188 19.6777 5.91285C19.8291 5.69382 19.8993 5.45393 19.8826 5.21319C19.8659 4.97245 19.7628 4.73786 19.5819 4.52899L18.9631 3.81599C18.7823 3.60618 18.5279 3.42851 18.2215 3.2981C17.9151 3.16768 17.5657 3.0884 17.2032 3.06699C16.8421 3.04317 16.4776 3.07796 16.1412 3.16836C15.8048 3.25877 15.5064 3.40208 15.2717 3.58599L12.2247 5.93399L13.7663 3.00799C13.886 2.78034 13.9219 2.53697 13.871 2.29822C13.8201 2.05947 13.6838 1.83229 13.4736 1.63568C13.2635 1.43908 12.9854 1.27878 12.6629 1.16818C12.3403 1.05758 11.9825 0.999909 11.6195 0.999987H10.3835C10.0206 1.00007 9.66304 1.05786 9.34065 1.16852C9.01827 1.27919 8.74045 1.43951 8.53043 1.63609C8.32042 1.83267 8.1843 2.05979 8.13347 2.29846C8.08263 2.53714 8.11856 2.78042 8.23824 3.00799L9.77832 5.93399L6.73278 3.58499C6.49813 3.40108 6.19977 3.25777 5.86332 3.16736C5.52688 3.07696 5.16243 3.04217 4.80128 3.06599C4.43879 3.0874 4.08945 3.16668 3.78303 3.2971C3.47661 3.42751 3.22217 3.60518 3.0414 3.81499L2.42266 4.52799C2.24201 4.73683 2.13914 4.97133 2.12263 5.21194C2.10612 5.45255 2.17644 5.69229 2.32772 5.91118C2.47901 6.13008 2.70688 6.32177 2.99235 6.47029C3.27781 6.61881 3.61258 6.71985 3.96876 6.76499L6.15167 7.03999H1.45164C1.39233 7.03999 1.3336 7.04775 1.2788 7.06282C1.22401 7.0779 1.17422 7.1 1.13228 7.12785C1.09034 7.15571 1.05708 7.18878 1.03438 7.22518C1.01168 7.26158 1 7.30059 1 7.33999V9.15199C1 9.19138 1.01168 9.23039 1.03438 9.26679C1.05708 9.30319 1.09034 9.33626 1.13228 9.36412C1.17422 9.39198 1.22401 9.41407 1.2788 9.42915C1.3336 9.44423 1.39233 9.45199 1.45164 9.45199H2.81558V18.813C2.81558 18.8926 2.86316 18.9689 2.94786 19.0251C3.03256 19.0814 3.14744 19.113 3.26722 19.113L18.6123 19.135C18.9721 19.141 18.9947 18.969 18.9947 18.969ZM20.0937 7.64399V8.85199H12.8209V7.64399H20.0937ZM9.10388 2.80899C9.03134 2.67272 9.00928 2.52686 9.03956 2.38373C9.06983 2.2406 9.15156 2.10443 9.27782 1.98672C9.40408 1.86901 9.57116 1.77323 9.76493 1.70748C9.9587 1.64173 10.1735 1.60795 10.391 1.60899H11.627C11.8446 1.60795 12.0594 1.64173 12.2531 1.70748C12.4469 1.77323 12.614 1.86901 12.7402 1.98672C12.8665 2.10443 12.9482 2.2406 12.9785 2.38373C13.0088 2.52686 12.9867 2.67272 12.9142 2.80899L11.0023 6.42699L9.10388 2.80899ZM9.18969 18.515H3.72789V9.45599H9.18367L9.18969 18.515ZM9.18969 8.85199H1.90327V7.64399H9.18367L9.18969 8.85199ZM4.14189 6.17299C3.92802 6.14568 3.72704 6.08491 3.5556 5.9957C3.38417 5.90649 3.24722 5.79141 3.15611 5.66002C3.06501 5.52863 3.02238 5.3847 3.03175 5.24017C3.04112 5.09565 3.10223 4.95469 3.21001 4.82899L3.83327 4.11599C3.94143 3.99018 4.09371 3.88357 4.27718 3.80522C4.46065 3.72688 4.66988 3.67911 4.88709 3.66599C4.93225 3.66599 4.97742 3.66599 5.01957 3.66599C5.21567 3.66557 5.40956 3.69342 5.58787 3.74764C5.76617 3.80185 5.92464 3.88112 6.05231 3.97999L9.81596 6.88799L4.14189 6.17299ZM11.9116 18.515H10.093V9.45599H11.9116V18.515ZM11.9116 8.85199H10.093V7.64399H11.9116V8.85199ZM15.9582 3.97799C16.0859 3.87912 16.2444 3.79985 16.4227 3.74564C16.601 3.69142 16.7949 3.66357 16.991 3.66399C17.0316 3.66399 17.0768 3.66399 17.1234 3.66399C17.3407 3.67711 17.5499 3.72488 17.7334 3.80322C17.9168 3.88157 18.0691 3.98818 18.1773 4.11399L18.8005 4.82699C18.909 4.9531 18.9704 5.09461 18.9796 5.23971C18.9889 5.38481 18.9458 5.52928 18.8538 5.66104C18.7618 5.79279 18.6238 5.90802 18.4511 5.99708C18.2784 6.08615 18.0761 6.14646 17.8611 6.17299L12.1916 6.88599L15.9582 3.97799ZM18.1968 18.515H12.8209V9.45599H18.2766V10.8L18.2586 10.809L18.1968 18.515Z" stroke-width="0.5"/>
</svg>
