<svg width="20" height="21" viewBox="0 0 20 21" fill="none" xmlns="http://www.w3.org/2000/svg">
<path d="M9.07619 8.35058C8.92084 8.35058 8.77185 8.28886 8.662 8.17901C8.55215 8.06917 8.49045 7.92019 8.49045 7.76484V6.37318C8.49045 6.21783 8.55215 6.06885 8.662 5.959C8.77185 5.84915 8.92084 5.78744 9.07619 5.78744C9.23154 5.78744 9.38052 5.84915 9.49037 5.959C9.60022 6.06885 9.66192 6.21783 9.66192 6.37318V7.76484C9.66192 7.92019 9.60022 8.06917 9.49037 8.17901C9.38052 8.28886 9.23154 8.35058 9.07619 8.35058Z" />
<path d="M7.36216 3.35308C7.20681 3.35308 7.05783 3.29136 6.94798 3.18152C6.83813 3.07167 6.77641 2.92268 6.77641 2.76733V1.37484C6.77641 1.29792 6.79156 1.22176 6.821 1.15069C6.85044 1.07962 6.89359 1.01505 6.94798 0.960661C7.00237 0.90627 7.06694 0.863124 7.138 0.833688C7.20907 0.804251 7.28524 0.789101 7.36216 0.789101C7.43908 0.789101 7.51524 0.804251 7.58631 0.833688C7.65738 0.863124 7.72196 0.90627 7.77635 0.960661C7.83074 1.01505 7.87388 1.07962 7.90331 1.15069C7.93275 1.22176 7.9479 1.29792 7.9479 1.37484V2.7665C7.94801 2.84349 7.93294 2.91975 7.90355 2.99091C7.87417 3.06207 7.83104 3.12674 7.77664 3.18122C7.72224 3.2357 7.65763 3.27892 7.58651 3.30841C7.51539 3.3379 7.43915 3.35308 7.36216 3.35308Z" />
<path d="M4.51155 6.14886C4.3562 6.14886 4.20721 6.08714 4.09736 5.97729C3.98752 5.86744 3.9258 5.71846 3.9258 5.56311V4.17062C3.9258 4.01527 3.98752 3.86629 4.09736 3.75644C4.20721 3.64659 4.3562 3.58488 4.51155 3.58488C4.6669 3.58488 4.81588 3.64659 4.92573 3.75644C5.03558 3.86629 5.09729 4.01527 5.09729 4.17062V5.56228C5.0974 5.63927 5.08233 5.71553 5.05294 5.78669C5.02355 5.85785 4.98043 5.92252 4.92602 5.977C4.87162 6.03148 4.80701 6.0747 4.73589 6.10419C4.66477 6.13368 4.58854 6.14886 4.51155 6.14886Z" />
<path d="M11.2546 5.53652C11.0993 5.53652 10.9503 5.47481 10.8405 5.36496C10.7306 5.25512 10.6689 5.10613 10.6689 4.95078V3.55829C10.6689 3.40294 10.7306 3.25396 10.8405 3.14411C10.9503 3.03426 11.0993 2.97255 11.2546 2.97255C11.41 2.97255 11.559 3.03426 11.6688 3.14411C11.7787 3.25396 11.8404 3.40294 11.8404 3.55829V4.94995C11.8405 5.02694 11.8254 5.1032 11.796 5.17436C11.7666 5.24552 11.7235 5.31019 11.6691 5.36467C11.6147 5.41915 11.5501 5.46237 11.479 5.49186C11.4079 5.52135 11.3316 5.53652 11.2546 5.53652Z" />
<path d="M15.7669 13.0415H0V13.9438C0 14.0343 0 14.1249 0.00581589 14.2146H15.761C15.761 14.1249 15.7669 14.0343 15.7669 13.9438V13.0415Z" />
<path d="M6.84535 20.7891H8.92245C10.4865 20.7871 12.0029 20.2504 13.22 19.2682C14.4371 18.2859 15.2818 16.917 15.614 15.3887H0.153755C0.48597 16.917 1.3307 18.2859 2.54782 19.2682C3.76494 20.2504 5.2813 20.7871 6.84535 20.7891Z" />
<path d="M15.7669 11.8701V9.52459H0.585743C0.430394 9.52459 0.281408 9.58631 0.17156 9.69616C0.061712 9.80601 0 9.95499 0 10.1103L0 11.8701H15.7669Z"/>
<path d="M16.9707 9.52454H16.9383V10.696H16.9707C17.4639 10.696 17.9368 10.8919 18.2855 11.2406C18.6343 11.5894 18.8302 12.0623 18.8302 12.5555C18.8302 13.0486 18.6343 13.5216 18.2855 13.8703C17.9368 14.219 17.4639 14.4149 16.9707 14.4149H16.9383V15.5872H16.9707C17.775 15.5872 18.5464 15.2677 19.1151 14.699C19.6838 14.1303 20.0033 13.3589 20.0033 12.5546C20.0033 11.7503 19.6838 10.979 19.1151 10.4103C18.5464 9.84156 17.775 9.52206 16.9707 9.52206V9.52454Z" />
</svg>
