<svg width="20" height="18" viewBox="0 0 20 18" fill="none" xmlns="http://www.w3.org/2000/svg">
<path d="M7.92755 7.19987H3.86948C4.07503 7.56469 4.37077 7.86766 4.72695 8.0783C5.08313 8.28895 5.4872 8.39984 5.89851 8.39984C6.30983 8.39984 6.7139 8.28895 7.07008 8.0783C7.42626 7.86766 7.72199 7.56469 7.92755 7.19987Z" />
<path d="M11.7576 5.9998C11.7615 4.80748 11.4195 3.64083 10.775 2.6478C10.1305 1.65476 9.21259 0.880061 8.13758 0.421941C7.06257 -0.0361791 5.87892 -0.157087 4.73672 0.07455C3.59451 0.306186 2.54521 0.879933 1.72186 1.72304C0.898519 2.56614 0.338217 3.64062 0.112008 4.81023C-0.1142 5.97984 0.00387401 7.1919 0.451259 8.2927C0.898644 9.39351 1.65519 10.3335 2.62495 10.9934C3.59472 11.6534 4.73403 12.0035 5.89841 11.9996C7.45179 11.9977 8.94101 11.3649 10.0394 10.2402C11.1378 9.11541 11.7557 7.59045 11.7576 5.9998ZM7.07039 3.59961H8.24236V4.79971H7.07039V3.59961ZM3.55447 3.59961H4.72644V4.79971H3.55447V3.59961ZM2.45473 6.71943L2.31446 6.00124H9.48517L9.3449 6.71943C9.18269 7.53217 8.75133 8.26259 8.12377 8.78716C7.4962 9.31173 6.71097 9.59825 5.90087 9.59825C5.09077 9.59825 4.30553 9.31173 3.67797 8.78716C3.05041 8.26259 2.61904 7.53217 2.45684 6.71943H2.45473Z" />
<path d="M14.1015 5.99978C13.706 5.99967 13.3114 6.04058 12.9239 6.12188C12.9002 7.34694 12.568 8.545 11.9596 9.60007H12.9295V10.8002H11.7576V9.93833C10.9329 11.2279 9.72688 12.2134 8.31598 12.7508C8.45631 13.8993 8.91778 14.9818 9.64485 15.8681C10.3719 16.7543 11.3336 17.4065 12.4142 17.7462C13.4947 18.0859 14.6481 18.0986 15.7356 17.7828C16.8231 17.467 17.7982 16.8361 18.5437 15.9661C19.2892 15.0961 19.7733 14.024 19.9378 12.8788C20.1022 11.7336 19.94 10.5642 19.4706 9.51128C19.0012 8.45834 18.2446 7.56671 17.292 6.94373C16.3393 6.32075 15.2311 5.99296 14.1008 5.99978H14.1015ZM15.2735 9.60007H16.4455V10.8002H15.2735V9.60007ZM15.9748 14.1613C15.7489 13.8753 15.4633 13.6446 15.1391 13.4862C14.8148 13.3277 14.4601 13.2455 14.1008 13.2455C13.7415 13.2455 13.3868 13.3277 13.0625 13.4862C12.7383 13.6446 12.4527 13.8753 12.2268 14.1613L11.2905 13.4395C11.6176 12.9928 12.0419 12.6302 12.5296 12.3805C13.0173 12.1308 13.5552 12.0007 14.1005 12.0007C14.6458 12.0007 15.1836 12.1308 15.6713 12.3805C16.159 12.6302 16.5833 12.9928 16.9105 13.4395L15.9748 14.1613Z" />
</svg>
