<svg width="20" height="18" viewBox="0 0 20 18" fill="none" xmlns="http://www.w3.org/2000/svg">
<path d="M19.9931 8.87153C19.9931 9.49653 19.4722 9.98611 18.8819 9.98611H17.7708L17.7951 15.5451C17.7951 15.6424 17.7882 15.7326 17.7778 15.8264V16.3889C17.7778 17.1562 17.1562 17.7778 16.3889 17.7778H15.8333C15.7951 17.7778 15.7569 17.7465 15.7187 17.7743C15.6701 17.7465 15.6215 17.7778 15.5729 17.7778H13.6111C12.8438 17.7778 12.2222 17.1562 12.2222 16.3889V13.3333C12.2222 12.7188 11.7257 12.2222 11.1111 12.2222H8.88889C8.27431 12.2222 7.77778 12.7188 7.77778 13.3333V16.3889C7.77778 17.1562 7.15625 17.7778 6.38889 17.7778H4.44792C4.39583 17.7778 4.34375 17.7743 4.29167 17.7708C4.25 17.7743 4.20833 17.7778 4.16667 17.7778H3.61111C2.8441 17.7778 2.22222 17.1562 2.22222 16.3889V12.5C2.22222 12.4688 2.22326 12.434 2.22535 12.4028V9.98611H1.11285C0.486805 9.98611 0 9.49653 0 8.87153C0 8.55903 0.104306 8.28125 0.347569 8.03819L9.25 0.278333C9.49305 0.0347917 9.77083 0 10.0139 0C10.2569 0 10.5347 0.0695833 10.7465 0.243542L19.6111 8.03819C19.8889 8.28125 20.0312 8.55903 19.9931 8.87153Z" />
</svg>
