<svg width="90" height="20" viewBox="0 0 90 20" fill="none" xmlns="http://www.w3.org/2000/svg">
<path fill-rule="evenodd" clip-rule="evenodd" d="M0.104841 12.7833C-0.485843 16.1318 1.42168 19.1122 5.77104 19.1122C7.92263 19.0649 9.98377 18.2376 11.5708 16.784L10.4207 14.0584C10.4207 14.0584 8.53451 15.6424 6.7852 15.6424C5.27178 15.6424 3.85878 14.8149 4.22731 12.7364C4.33356 11.9363 4.72307 11.2009 5.32517 10.6634C5.92726 10.126 6.70206 9.82219 7.50899 9.80712C8.00588 9.80712 8.42936 9.94921 8.36162 10.3282L8.26688 10.8653H11.811L12.1009 9.22687C12.4841 7.05361 9.81393 6.38477 8.11152 6.38477C3.50257 6.38193 0.672314 9.56839 0.104841 12.7833Z" fill="black"/>
<path fill-rule="evenodd" clip-rule="evenodd" d="M12.1006 18.8109H16.1889L16.9942 14.2338C17.0862 13.6016 17.2665 12.9854 17.5299 12.4034C17.841 11.7359 18.3407 11.1741 18.9674 10.7873C19.5941 10.4005 20.3204 10.2057 21.0565 10.2268C21.33 10.2234 21.6031 10.2475 21.8717 10.2989L22.5439 6.48098C22.391 6.45179 22.2358 6.43593 22.0801 6.43359C20.2598 6.43359 18.4939 7.7348 17.6976 9.30412H17.6502C17.6152 9.51017 17.7033 9.27428 17.7706 8.89675L17.8833 8.25917C18.0789 7.14933 17.5432 6.69886 16.4319 6.69886H12.8168L12.2124 10.1245H13.11C13.1766 10.1143 13.2448 10.1216 13.3078 10.1456C13.3708 10.1696 13.4265 10.2096 13.4695 10.2615C13.5124 10.3135 13.5412 10.3758 13.5529 10.4422C13.5646 10.5086 13.5589 10.5769 13.5363 10.6404L12.1006 18.8109Z" fill="black"/>
<path fill-rule="evenodd" clip-rule="evenodd" d="M26.0697 10.8874C26.2624 10.4474 26.5836 10.076 26.9913 9.82195C27.3989 9.56791 27.8739 9.44312 28.3538 9.46397C28.532 9.46 28.7088 9.49618 28.8711 9.56982C29.0334 9.64346 29.1771 9.75267 29.2914 9.88937C29.4058 10.0261 29.4879 10.1868 29.5318 10.3595C29.5756 10.5323 29.58 10.7127 29.5446 10.8874H26.0697ZM21.4631 12.6116C20.8691 15.9857 22.6502 19.1484 27 19.1484C29.0089 19.1103 30.9522 18.4263 32.5421 17.1978L31.4109 14.369C31.4109 14.369 29.6829 15.7228 27.9336 15.7228C26.6343 15.7228 25.5335 14.9961 25.5131 13.3662H33.1948C33.1948 13.3662 33.435 12.5401 33.5056 12.1375C34.0797 8.89178 32.4904 6.37129 28.898 6.37129C27.1193 6.35827 25.3942 6.97916 24.0317 8.12269C22.6693 9.26621 21.7587 10.8576 21.4631 12.6116Z" fill="black"/>
<path fill-rule="evenodd" clip-rule="evenodd" d="M35.7702 18.8108H40.4739L42.83 13.2251C43.0078 12.8034 43.1626 12.3723 43.2937 11.9339H43.3411C43.3177 12.3641 43.3207 12.7953 43.35 13.2251L43.7351 18.8108H48.3905L52.3145 10.5019C52.4865 10.1973 52.6181 10.1268 52.9014 10.1268H53.2567L53.8601 6.69966H50.8338C50.4517 6.66161 50.0682 6.75588 49.7473 6.96669C49.4264 7.17749 49.1875 7.49206 49.0707 7.85782L46.7573 14.0048C46.5947 14.4321 46.4695 14.8727 46.3831 15.3217H46.3357C46.3897 14.8849 46.4041 14.4442 46.3788 14.0048L45.9818 6.74797H42.4827L39.525 14.0048C39.3475 14.4334 39.1987 14.8733 39.0798 15.3217H39.0324C39.1022 14.8863 39.1323 14.4456 39.1224 14.0048L38.9803 7.85782C38.9566 7.05256 38.4991 6.69966 37.6 6.69966H34.5732L33.9692 10.1253H34.324C34.6082 10.1253 34.7361 10.1983 34.774 10.5157L35.7702 18.8108Z" fill="black"/>
<path fill-rule="evenodd" clip-rule="evenodd" d="M52.7778 18.8303H56.8672L57.8307 13.3707C57.9144 12.8095 58.0822 12.2642 58.3285 11.753C58.5616 11.2099 58.9462 10.7455 59.4362 10.415C59.9263 10.0846 60.501 9.90217 61.0919 9.88956C61.9891 9.88956 62.3524 10.3803 62.1449 11.5569L61.1663 17.1066C60.9541 18.3102 61.3814 18.8303 62.5874 18.8303H66.3693L66.9737 15.4061H66.0737C65.7421 15.4061 65.5882 15.21 65.6474 14.8661L66.3693 10.773C66.951 7.4804 65.223 6.41982 62.7655 6.41982C62.0013 6.40441 61.2432 6.55906 60.5461 6.87258C59.8491 7.18609 59.2304 7.65065 58.7349 8.23262H58.6875C58.777 7.91211 58.8498 7.58718 58.9059 7.25918L59.8642 1.72372C60.0769 0.519146 59.6477 0 58.4431 0H54.665L54.0611 3.42568H54.9582C55.2898 3.42568 55.4438 3.62508 55.3817 3.97655L52.7778 18.8303Z" fill="black"/>
<path fill-rule="evenodd" clip-rule="evenodd" d="M68.2356 14.5643C67.6198 18.0554 69.3464 19.1164 71.757 19.1164C72.55 19.1277 73.335 18.956 74.051 18.6149C74.767 18.2737 75.3948 17.7722 75.8856 17.1492H75.933C75.9557 17.0156 75.9036 17.18 75.8828 17.2994L75.8534 17.4642C75.708 18.2913 76.2266 18.8332 77.3379 18.8332H80.954L81.5584 15.4089H80.6584C80.5916 15.4195 80.5232 15.4126 80.4598 15.3888C80.3965 15.365 80.3404 15.3251 80.2972 15.273C80.2539 15.221 80.2249 15.1586 80.213 15.092C80.2011 15.0254 80.2067 14.9568 80.2293 14.8931L81.6755 6.70117H77.5866L76.6392 12.0737C76.3204 13.8813 75.2244 15.4061 73.4751 15.4061C72.6224 15.4061 72.2576 14.9366 72.4556 13.8112L73.403 8.4268C73.6171 7.2227 73.188 6.70163 71.982 6.70163H68.2001L67.5957 10.1273H68.4957C68.5623 10.117 68.6306 10.1242 68.6936 10.1481C68.7567 10.1721 68.8125 10.212 68.8555 10.2641C68.8985 10.3161 68.9272 10.3784 68.9389 10.4448C68.9505 10.5113 68.9447 10.5796 68.922 10.6432L68.2356 14.5643Z" fill="black"/>
<path fill-rule="evenodd" clip-rule="evenodd" d="M82.7134 18.7933H86.4475L87.0594 15.3216H83.3254L82.7134 18.7933ZM83.7394 13.6396H87.2371L90.0001 1.29492H85.7459L83.7394 13.6396Z" fill="black"/>
</svg>
