<svg width="20" height="20" viewBox="0 0 20 20" fill="none" xmlns="http://www.w3.org/2000/svg">
<path d="M17.5 -3C18.8802 -3 20 -1.87437 20 -0.485795V21.304C20 22.692 18.8802 23.8182 17.5 23.8182H12.5V19.6278C12.5 18.2398 11.3802 17.1136 10 17.1136C8.61979 17.1136 7.5 18.2398 7.5 19.6278V23.8182H2.5C1.11927 23.8182 0 22.692 0 21.304V-0.485795C0 -1.87437 1.11927 -3 2.5 -3H17.5ZM3.33333 11.2472C3.33333 11.7081 3.70625 12.0852 4.16667 12.0852H5.83333C6.29167 12.0852 6.66667 11.7081 6.66667 11.2472V9.57102C6.66667 9.11009 6.29167 8.73295 5.83333 8.73295H4.16667C3.70625 8.73295 3.33333 9.11009 3.33333 9.57102V11.2472ZM9.16667 8.73295C8.70833 8.73295 8.33333 9.11009 8.33333 9.57102V11.2472C8.33333 11.7081 8.70833 12.0852 9.16667 12.0852H10.8333C11.2917 12.0852 11.6667 11.7081 11.6667 11.2472V9.57102C11.6667 9.11009 11.2917 8.73295 10.8333 8.73295H9.16667ZM13.3333 11.2472C13.3333 11.7081 13.7083 12.0852 14.1667 12.0852H15.8333C16.2917 12.0852 16.6667 11.7081 16.6667 11.2472V9.57102C16.6667 9.11009 16.2917 8.73295 15.8333 8.73295H14.1667C13.7083 8.73295 13.3333 9.11009 13.3333 9.57102V11.2472ZM4.16667 2.02841C3.70625 2.02841 3.33333 2.40554 3.33333 2.86648V4.54261C3.33333 5.00355 3.70625 5.38068 4.16667 5.38068H5.83333C6.29167 5.38068 6.66667 5.00355 6.66667 4.54261V2.86648C6.66667 2.40554 6.29167 2.02841 5.83333 2.02841H4.16667ZM8.33333 4.54261C8.33333 5.00355 8.70833 5.38068 9.16667 5.38068H10.8333C11.2917 5.38068 11.6667 5.00355 11.6667 4.54261V2.86648C11.6667 2.40554 11.2917 2.02841 10.8333 2.02841H9.16667C8.70833 2.02841 8.33333 2.40554 8.33333 2.86648V4.54261ZM14.1667 2.02841C13.7083 2.02841 13.3333 2.40554 13.3333 2.86648V4.54261C13.3333 5.00355 13.7083 5.38068 14.1667 5.38068H15.8333C16.2917 5.38068 16.6667 5.00355 16.6667 4.54261V2.86648C16.6667 2.40554 16.2917 2.02841 15.8333 2.02841H14.1667Z"/>
</svg>
