<svg width="20" height="18" viewBox="0 0 20 18" fill="none" xmlns="http://www.w3.org/2000/svg">
<path d="M18.4688 5.57812C20.5117 7.64844 20.5117 10.9766 18.4688 13.0469L14.0938 17.4727C13.7305 17.8398 13.1367 17.8438 12.7695 17.4805C12.3984 17.1172 12.3984 16.5234 12.7617 16.1523L17.1328 11.7305C18.457 10.3906 18.457 8.23438 17.1328 6.89453L12.1445 1.84648C11.7773 1.47812 11.7812 0.884762 12.1523 0.5207C12.5195 0.156637 13.1133 0.160153 13.4414 0.528512L18.4688 5.57812ZM1.17188e-05 7.96484V2.125C1.17188e-05 1.08945 0.839453 0.249997 1.875 0.249997H7.71484C8.37891 0.249997 9.01172 0.513278 9.48047 0.982419L16.043 7.54297C17.0195 8.51953 17.0195 10.1055 16.043 11.082L10.832 16.293C9.85547 17.2695 8.26953 17.2695 7.29297 16.293L0.732422 9.73047C0.263398 9.26172 0 8.62891 0 7.96484H1.17188e-05ZM4.375 3.375C3.68477 3.375 3.125 3.93359 3.125 4.625C3.125 5.31641 3.68477 5.875 4.375 5.875C5.06641 5.875 5.625 5.31641 5.625 4.625C5.625 3.93359 5.06641 3.375 4.375 3.375Z" />
</svg>
